<svg id="Layer_1" data-name="Layer 1" xmlns="http://www.w3.org/2000/svg" viewBox="0 0 227.09 122.03"><defs><style>.cls-1{fill:#0e70b8;}.cls-2{fill:#f7901e;}.cls-3{fill:#f79121;}</style></defs><title>ivb_logo standar_TV_TA_China</title><path class="cls-1" d="M171.42,83.22a22.19,22.19,0,0,0-3.82-2.15s4.23-4.73,5.28-6.9a18.29,18.29,0,0,0,1.72-8.08c0-.62,0-1.24-.07-1.83a16.49,16.49,0,0,0-3.92-10c-3.94-4.49-9.72-8.15-19-8.15-2.06-.11-3.87-.08-5.5,0l-2.31,0h-26a4.06,4.06,0,0,0-4.24,3.85V53a4.07,4.07,0,0,0,4.3,3.79h2.74a1,1,0,0,1,1,1v60.44a4,4,0,0,0,4.2,3.84h19.37c3,0,6.27-.17,9.77-.52a36.83,36.83,0,0,0,10.72-2.67c3.54-1.47,6.54-4.63,8.91-7.53,2.53-3.06,3.8-7.15,3.8-12.15h0v0a21.21,21.21,0,0,0-1.93-9.41,19.49,19.49,0,0,0-5-6.5M140.54,57.88a17.9,17.9,0,0,1,3-.18,27.5,27.5,0,0,1,5.43.52,10,10,0,0,1,3.67,1.44,6.23,6.23,0,0,1,2.16,2.45,4.48,4.48,0,0,1,.2.44,11.31,11.31,0,0,1,.66,4.2c0,2.37-.44,4.19-1.28,5.25a8.07,8.07,0,0,1-3.31,2.57,14.66,14.66,0,0,1-4.78,1.08c-2.07.14-4.18,0-5.73,0Zm17.78,46.22a8.6,8.6,0,0,1-2.89,3,14.1,14.1,0,0,1-4.5,1.76,26.84,26.84,0,0,1-5.77.6,40,40,0,0,1-4.62-.2c-.08,0,.05,0,0,0,0-.25,0-21.68,0-21.68,2.21,0,4.94.12,7.47.34a17.73,17.73,0,0,1,5.9,1.51,10.07,10.07,0,0,1,4,3.33c1,1.41,1.53,3.57,1.53,6.42a9.89,9.89,0,0,1-1.11,5"/><path class="cls-1" d="M22.49,46H4.33a4.71,4.71,0,0,0-2.1.49l-.14.07-.19.1A3.79,3.79,0,0,0,0,49.84V53a4,4,0,0,0,4.24,3.84H7a1.11,1.11,0,0,1,1.11.87c0,.73-.06,1.65-.06,2.63V118.1a3.75,3.75,0,0,0,.1.82A4.16,4.16,0,0,0,12.27,122h1.6v0h8.62a4.13,4.13,0,0,0,4.33-3.9V49.86A4.13,4.13,0,0,0,22.49,46"/><path class="cls-1" d="M109.35,46l-.51,0-6.31,0h-7.7a4.29,4.29,0,0,0-4,2.56c-.77,2-2.16,5.35-4,9.86L83.85,65.6l-3.94,9.77Q77.68,81,74.75,88.16q-1,2.4-2,5l-2-5Q67.77,81,65.51,75.37c-1.49-3.74-2.81-7-3.93-9.77l-2.93-7.19c-1.86-4.51-3.25-7.91-4-9.86a4.26,4.26,0,0,0-4-2.56H33.94a4.06,4.06,0,0,0-4.24,3.85V53a4,4,0,0,0,4.12,3.79h2.59c2.2,0,2.74,1.89,4.23,5.54l23.49,57.22a4.25,4.25,0,0,0,4,2.51H77.3a4.55,4.55,0,0,0,2.75-.9,3.79,3.79,0,0,0,1.25-1.61l20.78-50.63,2.71-6.59a21.54,21.54,0,0,1,.94-2l4.64-11,.39-.92A1.57,1.57,0,0,0,109.35,46"/><path class="cls-1" d="M205,42.44c4.3-2.1,5.85-4,6.39-5.74a3.4,3.4,0,0,0,.08-1.7,2.9,2.9,0,0,0-.6-1.13c-.39-.51-1.15-1.15-3.17-.83a12.74,12.74,0,0,0-2.81.82l-.47.22.53-.22-1.24.58c-.78.38-1.56.77-2.35,1.18l.71-.39-.82.41a45.45,45.45,0,0,0-7.48,4.68A37.47,37.47,0,0,0,187.88,46a17.65,17.65,0,0,0-3.1,5.43l-.08.26a16.45,16.45,0,0,0-.69,3.39,15.75,15.75,0,0,0,.92,5.91c.08.23.15.46.23.67,0-.75.5-9.8,19.87-19.23"/><path class="cls-1" d="M198.85,58.75a2,2,0,0,0-2.1-.28A17,17,0,0,0,191.4,62l-.05,0a14,14,0,0,0-3,4,5.86,5.86,0,0,0,.13,5.57,4,4,0,0,0,.2.35,7.6,7.6,0,0,0,.75,1,5.67,5.67,0,0,1,0-.58,5.78,5.78,0,0,1,.19-1.48,8.26,8.26,0,0,1,1.29-2.65,9.48,9.48,0,0,1,1.58-1.65,18.62,18.62,0,0,1,1.91-1.39A37.26,37.26,0,0,0,197.61,63a4.71,4.71,0,0,0,1.49-1.82,2.35,2.35,0,0,0,.1-2,2.18,2.18,0,0,0-.35-.49"/><path class="cls-2" d="M218.83,18.52c-.26-.5-.81-1.3-3.34-1.16a23.2,23.2,0,0,0-6.78,1.78l-.73.32.78-.32c-1.74.73-3.66,1.64-5.76,2.77l1.17-.63-1.25.66a91,91,0,0,0-9,5.62,37.26,37.26,0,0,0-7.64,7.27,25,25,0,0,0-3.86,6.86,16.65,16.65,0,0,0-.92,7.27,23,23,0,0,0,1,4.48c.12.4.24.72.31,1a11.2,11.2,0,0,1,.74-3.42c.11-.29.24-.56.37-.85s.25-.58.38-.86.29-.61.45-.9.33-.64.51-1,.4-.66.6-1,.47-.71.71-1.05.54-.74.82-1.1.61-.78.94-1.15.69-.8,1.06-1.19.78-.83,1.19-1.23.88-.83,1.34-1.24,1-.84,1.49-1.25,1.09-.87,1.65-1.27,1.22-.87,1.84-1.28,1.35-.87,2-1.28,1.46-.87,2.21-1.29,1.58-.87,2.39-1.29,1.68-.87,2.52-1.29l2.66-1.3a38.58,38.58,0,0,0,7.43-4.2,11.85,11.85,0,0,0,2.28-2.25,5.64,5.64,0,0,0,.69-1.16,3.5,3.5,0,0,0-.26-3.08"/><path class="cls-1" d="M180.53,42.39a7.5,7.5,0,0,1,.33-1.53c.1-.3.22-.6.33-.9,1.18-3.25,3.82-7.62,9.65-12.56l1.4-1.16a61,61,0,0,1,6-4.22l0,0c5.32-3.37,12.49-6.47,21.1-10.42,4.9-2.26,6.38-4.48,7.14-5.95a3.88,3.88,0,0,0,.14-3.78c-.27-.5-1.36-1.85-4.13-1.85a15.05,15.05,0,0,0-3.65.54c-16.21,4.17-30.06,15.24-34.78,21.63a33.24,33.24,0,0,0-4.47,8.09,21.52,21.52,0,0,0-1.18,5.51c-.37,4.78,1.47,8.7,2,10.16,0,0,0-.09,0-.26a9.45,9.45,0,0,1,.13-3.28"/><path class="cls-3" d="M204.47,48.84a2.41,2.41,0,0,0-.55-.93,2.58,2.58,0,0,0-2.69-.62,18.28,18.28,0,0,0-5.93,2.9c-.59.39-1.18.8-1.79,1.26-2.39,1.95-5.46,4.84-6.67,8.44l0,0,0,.13a11.29,11.29,0,0,0-.55,2.69,11.68,11.68,0,0,0,.46,3.73c.05.18.1.35.15.54.09-.29.2-.58.32-.88a3.88,3.88,0,0,1,.15-.36c1.72-4,5.81-7.38,13-11.24,2.78-1.49,3.88-3.23,4.15-4.29a2.85,2.85,0,0,0,0-1.42"/><path class="cls-3" d="M194.29,71.34a11.42,11.42,0,0,0-1.11-.77s0,0-.05,0l-.07,0-.08-.06-1.24-.76-.38-.23-.14-.1a6.12,6.12,0,0,0-1,2,2.21,2.21,0,0,0,.73,2.57c.56.37,1.07.69,1.42.88a6.2,6.2,0,0,0,1.08.48,4.33,4.33,0,0,0,1,.19,1.12,1.12,0,0,0,.33,0,1.45,1.45,0,0,0,.25-.09.86.86,0,0,0,.22-.2A2.66,2.66,0,0,0,195,72a5.08,5.08,0,0,0-.75-.7"/></svg>